# xmcd
#
# Track frame offsets: 
#        245
#        15648
#        45384
#        79751
#        100367
#        131325
#        151097
#        175740
#        203184
#        216373
#        230419
#        254213
#        280755
#
# Disc length: 4116 seconds
#
# Revision: 0
# Processed by: cddbd v1.5.1PL0 Copyright (c) Steve Scherf et al.
# Submitted via: ExactAudioCopy v0.90b4
#
DISCID=ae10110d
DTITLE=JJ And The Shuffle Kings - J.J. And The Shuffle Kings ++Live Me
DTITLE=ise 05++
DYEAR=2005
DGENRE=Blues
TTITLE0=New One
TTITLE1=Essential Food
TTITLE2=Time
TTITLE3=I Need My Baby
TTITLE4=I've Had My Fun
TTITLE5=I Can't Hear It Anymore
TTITLE6=The Yawing Void Inside
TTITLE7=Come On Prettty Baby
TTITLE8=I Hear You Knocking
TTITLE9=Hey Now Baby
TTITLE10=Cool Disposition
TTITLE11=Smoke Too Much
TTITLE12=Bring It On Home
EXTD=
EXTT0=
EXTT1=
EXTT2=
EXTT3=
EXTT4=
EXTT5=
EXTT6=
EXTT7=
EXTT8=
EXTT9=
EXTT10=
EXTT11=
EXTT12=
PLAYORDER=
